<svg height="727.77804" viewBox="0 0 769.92356 727.77804" width="769.92356" xmlns="http://www.w3.org/2000/svg"><path d="m250.3669 723.94159h519.55666v2.24072h-519.55666z" fill="#3f3d56"/><path d="m888.00011 428.99257a11.01956 11.01956 0 0 1 -2.15469 16.2265l-53.77008 36.91677-23.677 15.78467a6.50932 6.50932 0 0 1 -8.64865-1.29413 6.50932 6.50932 0 0 1 1.76937-9.75113l22.93281-13.31582 40.02328-38.11743-25.72926-27.63513 19.05871-14.294z" fill="#a0616a" transform="translate(-215.03822 -86.11098)"/><path d="m546.52 690.482h-13.153l-7.812-108.635 33.353-.953z" fill="#a0616a"/><path d="m762.51106 811.85147c-3.5071 1.60062-6.44475-11.36747-9.403-8.4603-8.27476 8.13174-20.94589 9.90248-31.99089 6.35216l3.86555-.04321a5.17261 5.17261 0 0 1 -3.26034-6.74068 5.17263 5.17263 0 0 1 3.58872-3.20194l8.8002-2.2 13.81756-24.29985 14.10577-.95294a33.70033 33.70033 0 0 1 6.23289 28.749c-1.28005 5.22455-3.25617 9.65665-5.75646 10.79776z" fill="#2f2e41" transform="translate(-215.03822 -86.11098)"/><path d="m634.096 690.482h-13.153l-7.812-108.635 34.306-6.67z" fill="#a0616a"/><path d="m850.087 811.85147c-3.5071 1.60062-6.44476-11.36747-9.40305-8.4603-8.27475 8.13174-20.94589 9.90248-31.99089 6.35216l3.86555-.04321a5.17261 5.17261 0 0 1 -3.26034-6.74068 5.17264 5.17264 0 0 1 3.58873-3.20194l8.80019-2.2 13.81757-24.29985 15.0587-1.90587.38035.622a38.82707 38.82707 0 0 1 4.1608 31.74873c-1.25233 4.01256-2.95695 7.18849-5.01761 8.12896z" fill="#2f2e41" transform="translate(-215.03822 -86.11098)"/><path d="m864.04754 395.97018c-12.09554 1.68292-20.4694 8.307-23.8799 21.521l-22.23309-41.05a12.15492 12.15492 0 0 1 3.87324-15.43663 12.15493 12.15493 0 0 1 16.51068 2.41678z" fill="#f9a826" transform="translate(-215.03822 -86.11098)"/><path d="m887.34559 656.523c-54.05791 23.9182-109.38059 26.86134-165.81075 11.43523 20.60644-79.92158 44.93779-152.18824 44.788-211.55165l55.27025-4.76467 8.50989 13.49128a299.3077 299.3077 0 0 1 41.07162 104.75947z" fill="#2f2e41" transform="translate(-215.03822 -86.11098)"/><circle cx="581.77851" cy="218.77888" fill="#a0616a" r="28.58806"/><path d="m613.225 269.284-35.258 1.906-5.718-31.447 28.588-4.764z" fill="#a0616a"/><g transform="translate(-215.03822 -86.11098)"><path d="m824.45186 456.40658-38.62727 1.0881-19.50179 2.72364c-9.57274-31.62118-17.63171-63.16988 1.90587-89.57592l22.87045-22.8704 34.30568-.95293.45443.25967a27.62567 27.62567 0 0 1 12.657 32.13956c-8.51323 27.66455-13.98155 53.7887-14.06437 77.18828z" fill="#f9a826"/><path d="m765.36987 545.02957-2.39609 32.74648a7.29408 7.29408 0 0 1 -6.78945 6.74565 7.29408 7.29408 0 0 1 -7.77722-7.45156l.76287-32.04057 23.82338-90.52886.95294-55.27025 26.68219-.95293-1.90587 63.84667z" fill="#a0616a"/><path d="m803.48728 403.0422c-11.31253-4.6001-21.8779-3.05952-31.44686 6.67055l1.31094-46.66577a12.15493 12.15493 0 0 1 11.08252-11.42232 12.15493 12.15493 0 0 1 13.08133 10.35965z" fill="#f9a826"/><path d="m857.32813 432.10673h-87.67c20.45167-54.1569 27.04681-104.53868 0-147.705.46431-12.96516 17.09344-24.20477 30.00735-22.96305 15.25177 1.46651 35.74679 12.67435 38.60394 27.72772z" fill="#2f2e41"/><path d="m577.92754 259.05823h-3.99878v-109.54532a63.40186 63.40186 0 0 0 -63.40205-63.40191h-232.08644a63.40186 63.40186 0 0 0 -63.402 63.40193v600.97416a63.40186 63.40186 0 0 0 63.402 63.40191h232.08644a63.40186 63.40186 0 0 0 63.40205-63.40193v-413.45262h3.99878z" fill="#3f3d56"/><path d="m513.085 102.606h-30.295a22.49485 22.49485 0 0 1 -20.82715 30.99055h-132.9594a22.49483 22.49483 0 0 1 -20.82715-30.99055h-28.29557a47.3478 47.3478 0 0 0 -47.34786 47.34774v600.09249a47.34781 47.34781 0 0 0 47.34786 47.3478h233.20427a47.34781 47.34781 0 0 0 47.34787-47.3478v-600.09252a47.3478 47.3478 0 0 0 -47.34787-47.34771z" fill="#fff"/></g><path d="m58.44466 110.2337h246v211h-246z" fill="#e6e6e6"/><circle cx="131.44466" cy="347.2337" fill="#f9a826" r="18"/><path d="m140.445 345.734h-7.5v-7.5h-3v7.5h-7.5v3h7.5v7.5h3v-7.5h7.5z" fill="#fff"/><circle cx="226.44466" cy="347.2337" fill="#f9a826" r="18"/><path d="m439.98288 424.34468h3v18h-3z" fill="#fff" transform="matrix(0 1 -1 0 659.78934 -94.24918)"/><path d="m405.6577 222.65953h-19.4402a2.57738 2.57738 0 0 0 -2.57738 2.57738v8.53288a2.57738 2.57738 0 0 0 2.57738 2.57738h3.2215v12.78518h12.99715v-12.78518h3.22152a2.57738 2.57738 0 0 0 2.57738-2.57738v-8.53288a2.57738 2.57738 0 0 0 -2.57735-2.57738z" fill="#f9a826" transform="translate(-215.03822 -86.11098)"/><path d="m425.12915 300.75246a99.945 99.945 0 0 1 -17.38745-59.25632 2.10788 2.10788 0 0 0 -1.64531-2.10349v-3.687h-20.53145v3.63579h-.2829a2.1067 2.1067 0 0 0 -2.104 2.10944q.00009.07676.00578.15334 2.42627 33.82122-16.3857 60.66044a5.80592 5.80592 0 0 0 -1.05076 3.51846l2.245 69.4446a6.01162 6.01162 0 0 0 5.96021 5.80216h46.439a6.01372 6.01372 0 0 0 5.9638-5.90449l.86514-67.425a12.16847 12.16847 0 0 0 -2.09136-6.94793z" fill="#3f3d56" transform="translate(-215.03822 -86.11098)"/><path d="m401.60513 225.43986a5.5606 5.5606 0 1 1 -11.1212 0" opacity=".2" transform="translate(-215.03822 -86.11098)"/><path d="m417.77775 323.81976h-5.62341a14.75938 14.75938 0 0 0 -29.17437 0h-5.62378a4.15 4.15 0 0 0 -4.10174 4.781l6.10828 39.70382h35.07457l7.41937-39.57005a4.15007 4.15007 0 0 0 -4.07892-4.9148z" fill="#f9a826" transform="translate(-215.03822 -86.11098)"/><path d="m58.44466 407.2337h246v211h-246z" fill="#e6e6e6"/><circle cx="131.44466" cy="644.2337" fill="#f9a826" r="18"/><path d="m140.445 642.734h-7.5v-7.5h-3v7.5h-7.5v3h7.5v7.5h3v-7.5h7.5z" fill="#fff"/><circle cx="226.44466" cy="644.2337" fill="#f9a826" r="18"/><path d="m439.98288 721.34468h3v18h-3z" fill="#fff" transform="matrix(0 1 -1 0 956.78934 202.75082)"/><path d="m444.91088 643.24243.1358.0001a23.0403 23.0403 0 0 0 21.57285-14.45016 75.41617 75.41617 0 1 0 -100.46553 41.31009 22.84324 22.84324 0 0 0 25.37-4.7044 75.16747 75.16747 0 0 1 53.38688-22.15563z" fill="#fff" transform="translate(-215.03822 -86.11098)"/><circle cx="191.13" cy="509.39493" fill="#f9a825" r="24.906"/></svg>